<?xml version="1.0" encoding="UTF-8"?>
<!DOCTYPE svg PUBLIC "-//W3C//DTD SVG 1.1//EN" "http://www.w3.org/Graphics/SVG/1.1/DTD/svg11.dtd">
<!-- Creator: CorelDRAW -->
<svg xmlns="http://www.w3.org/2000/svg" xml:space="preserve" width="114mm" height="24mm" style="shape-rendering:geometricPrecision; text-rendering:geometricPrecision; image-rendering:optimizeQuality; fill-rule:evenodd; clip-rule:evenodd"
viewBox="0 0 114 24"
 xmlns:xlink="http://www.w3.org/1999/xlink">
 <defs>
  <style type="text/css">
   <![CDATA[
    .fil1 {fill:black}
    .fil0 {fill:#C9962A}
   ]]>
  </style>
 </defs>
 <g id="Layer_x0020_1">
  <metadata id="CorelCorpID_0Corel-Layer"/>
  <g id="_679509560">
   <path id="_679507952" class="fil0" d="M61.0874 4.1639c1.5338,-0.0303 3.0113,-0.097 2.9881,1.6374 -0.0232,1.7351 -1.4493,1.5803 -2.9854,1.5577l-0.0027 -3.1951zm-3.4751 -0.0042l1.1025 0.0108 -0.0021 7.8342 -1.008 0.0065 0.0186 1.6765 4.3378 -0.0064 0.0212 -1.6437 -1.0022 -0.0227 0.0108 -2.8726c1.5162,-0.0428 1.4226,0.5411 2.7347,2.7584 1.0679,1.8044 1.146,1.8292 3.7153,1.7785l0.0415 -1.6051c-2.1893,-0.7699 -1.5921,-1.9163 -3.4958,-3.6358 2.3387,-0.4228 3.2152,-3.4944 1.3766,-5.173 -0.8856,-0.8085 -2.1281,-0.7724 -3.5374,-0.7711 -1.4359,0.0015 -2.875,0.0084 -4.3106,-0.0025l-0.0029 1.668z"/>
   <path id="_679508384" class="fil0" d="M50.6217 4.1589c1.2127,-0.0014 2.6247,-0.0932 2.9217,1.03 0.3507,1.3262 -0.3697,2.1734 -1.6148,2.174l-0.5454 0.0002 -0.7602 0.0019 -0.0013 -3.2061zm-3.4727 0.0027l1.1019 -0.0046 -0.0014 7.8624 -0.9811 0.0095 -0.0172 1.6177 4.3638 0.0372 0.025 -1.6488 -1.0229 -0.0185 0.0063 -2.8816c1.2371,-0.0035 1.2257,0.1701 1.7353,1.053 1.927,3.3389 1.7089,3.6169 4.7201,3.4869l0.0294 -1.6476c-0.7399,-0.0292 -0.9062,-0.0909 -1.22,-0.5501 -0.7373,-1.0785 -1.0946,-2.1822 -1.9855,-2.8298l-0.2738 -0.2135c2.8087,-0.5732 2.8585,-4.0505 1.3942,-5.1797 -0.9624,-0.7421 -2.0736,-0.7612 -3.549,-0.7599 -1.4379,0.0014 -2.887,0.0167 -4.3237,-0.0047l-0.0014 1.6721z"/>
   <path id="_679508672" class="fil0" d="M95.8645 4.3791l1.1571 3.7869 -2.4701 -0.0043 1.313 -3.7826zm-5.0363 7.6246l-0.8689 0.0206 -0.0358 1.6458 4.1621 0.0139 0.0531 -1.6648 -0.9998 -0.0077c-0.0334,-0.372 0.5289,-1.6343 0.7133,-2.0805l3.7994 -0.0121 0.7107 2.07 -0.8527 0.0398 -0.0346 1.6422 4.4352 0.0136 0.0568 -1.6684 -0.8904 -0.0075 -3.7099 -9.498 -2.633 -0.0142 -3.9055 9.5073z"/>
   <path id="_679508168" class="fil0" d="M72.6206 8.1665l1.3373 -3.6726 1.126 3.6686 -2.4633 0.004zm-3.7877 3.8358l-0.7933 0.02 -0.0444 1.6602 4.1518 -0.0008 0.0206 -1.6434 -1.0241 -0.022 0.7651 -2.0984 3.8093 0.0024 0.7102 2.0989 -0.8533 -0.0004c-0.1237,0.4305 -0.1056,1.2211 -0.0107,1.6656l4.4198 -0.0007 0.0327 -1.6632 -0.9361 -0.0026 -3.6626 -9.5202 -2.5861 -0.0003c-0.3652,0.6991 -0.7086,1.6645 -1.0053,2.3893 -0.4868,1.1891 -2.7193,6.7782 -2.9936,7.1156z"/>
   <path id="_679508528" class="fil0" d="M37.8002 4.1652l1.2127 -0.0012 -0.0002 7.8374 -1.0081 0.0334 -0.0146 1.6069 8.0642 0.0418 0.1552 -3.5212c-0.5036,-0.0538 -1.5185,-0.1085 -1.9569,0.0402l-0.1251 1.8129 -2.7637 0.0034 0.0079 -3.2006 2.8246 -0.003 -0.001 -1.7575 -2.7827 -0.0187 -0.0466 -2.8799 2.7135 0.0054 0.0898 1.5902 1.954 0.0621 -0.09 -3.3035 -8.2313 -0.0203 -0.0017 1.6722z"/>
   <path id="_679508144" class="fil0" d="M36.7894 9.8573l-1.993 -0.0198 -0.1286 2.0352c-5.6425,1.2276 -6.1142,-5.2993 -3.6373,-7.1554 0.8362,-0.6266 2.6379,-0.9424 3.729,-0.3933 0.1636,0.4116 0.068,1.2519 0.0571,1.7897l2.0527 -0.0041 -0.0052 -3.1614c-2.5291,-0.7159 -5.1269,-1.1105 -7.3499,0.3426 -4.3675,2.8549 -3.4017,12.6255 6.4998,10.2362 0.8679,-0.2095 0.7065,-0.1068 0.7515,-1.5439 0.0194,-0.6218 0.0991,-1.5457 0.0239,-2.1258z"/>
   <path id="_679508240" class="fil0" d="M89.1528 9.846l-1.9929 -0.0052 -0.1266 1.9308c-0.2742,0.2137 -0.5599,0.2138 -0.9288,0.2364 -4.8644,0.2981 -4.9842,-5.5697 -2.717,-7.2825 0.7806,-0.5897 2.7148,-0.9983 3.7186,-0.3908 0.174,0.3896 0.0724,1.2434 0.0619,1.7661l2.0723 0.0122 -0.0081 -3.1735c-1.5247,-0.4324 -2.2364,-0.6498 -3.8585,-0.6317 -7.6538,0.1878 -8.0078,10.645 -1.0082,11.4956 1.0025,0.1218 4.5189,-0.0042 4.7176,-0.6491l0.0697 -3.3083z"/>
   <path id="_679508096" class="fil0" d="M106.185 4.1786c1.435,-0.101 2.6622,-0.0852 2.9485,1.2158 0.313,1.4218 -0.436,2.3284 -1.7656,2.3288l-0.6363 0.0047 -0.5451 -0.022 -0.0015 -3.5273zm-3.474 -0.0216l1.1061 0.0112 -0.0004 7.8323 -1.0621 0.0208 -0.0388 1.6587 4.5381 0.0018 0.0334 -1.6577 -1.1111 -0.0149 0.0168 -2.6156c1.7563,-0.0529 3.7567,0.1727 4.7868,-1.7057 1.0411,-1.8987 0.6963,-4.8985 -2.9719,-5.1601 -1.6111,-0.1149 -3.6535,-0.0587 -5.2918,-0.0253l-0.0051 1.6545z"/>
   <path id="_679507856" class="fil0" d="M10.4791 19.9865c1.226,-0.3416 2.2963,0.0578 3.2104,0.6074 1.3811,0.8304 1.785,1.4927 2.2441,1.776 -0.2895,-0.9484 -1.151,-1.9277 -1.8783,-2.3243 -1.139,-0.6211 -2.0263,-0.3843 -2.1321,-2.1527 -0.092,-1.5391 0.601,-2.1101 1.4981,-2.7015 0.4209,-0.2776 2.0652,-1.6948 1.5175,-2.4064 -0.6963,-0.3605 -2.0431,0.0318 -2.8167,0.1034 -1.1488,0.1064 -2.0805,-0.3341 -2.909,-0.2642 -0.1693,0.2309 -0.1005,0.0643 -0.128,0.3981 -0.8927,-1.3542 -1.7589,-0.1034 0.2225,1.2286 0.5407,0.3636 3.0202,1.1469 2.438,3.8057 -0.2111,0.9641 -0.7212,1.4061 -1.2665,1.9299z"/>
   <path id="_679507664" class="fil0" d="M10.4791 19.9865c-3.5899,1.9521 -5.553,-0.5534 -7.1452,-0.7153 -0.3247,1.7345 1.4443,2.9608 3.187,2.5698 0.7035,-0.1579 1.5068,-0.5095 2.1289,-0.7862 1.3355,-0.594 0.8526,-0.4319 1.8293,-1.0683z"/>
   <path id="_679507688" class="fil0" d="M6.3958 5.5245l0.0734 -0.1248c0.0355,-0.1067 0.0357,-0.0098 0.0602,-0.229 0.1955,-1.7501 -1.705,-4.5757 -3.6447,-3.1532 -1.0442,0.7656 0.3262,1.7461 1.2456,1.8748 0.787,0.1101 0.8865,-0.1161 1.5378,0.3652 0.1433,0.1059 0.3899,0.3309 0.4985,0.5033 0.2296,0.3643 0.0748,0.4792 0.2292,0.7637z"/>
   <path id="_679507352" class="fil0" d="M14.5635 4.698c0.334,-0.2493 0.1826,-0.4552 0.5887,-0.6797 0.8667,-0.4791 0.6979,0.3038 1.5611,-0.9841 0.2146,-0.3202 0.4498,-0.465 0.5689,-0.7757 -0.3787,-0.7286 -1.8396,-0.6376 -2.4789,-0.1358 -0.6152,0.4828 -0.8379,1.8711 -0.2398,2.5753z"/>
   <g>
    <path id="_679507640" class="fil1" d="M97.9782 16.7768c0.8058,-0.0474 1.1985,0.0465 1.1717,0.9338 -0.0237,0.7837 -0.4366,0.9162 -1.2091,0.8495l0.0374 -1.7833zm-3.1056 3.8016l0.1002 -4.3799 -0.7484 -0.0273 -0.0603 4.2628c-0.0328,0.8033 -1.2299,0.9433 -1.4333,0.0289l0.016 -4.2523 -0.7494 0.0054 -0.0138 4.4314c0.2162,1.4495 2.8758,1.5107 2.889,-0.069zm-7.3805 -3.8191l1.0082 0.0247 0.0116 4.9408 0.7132 0.0154 0.0738 -4.9452 0.9449 -0.0246 0.0057 -0.5537 -2.7346 -0.0113 -0.0228 0.5539zm-7.9307 0.041l1.3825 -0.0056 0.0068 -0.5908 -2.1633 0.0011 0.0126 5.5225 1.7674 0.0117c0.3366,-0.0374 0.4545,0.1753 0.3825,-0.5655l-1.3926 -0.0213 0.0066 -1.9894 1.1461 0 0 -0.579 -1.1466 0 -0.002 -1.7837zm-5.1602 -0.5871l-0.714 0.0114 1.2212 5.5075 0.65 -0.0248 1.2375 -5.5007 -0.6774 -0.0048 -0.8674 3.8438 -0.8499 -3.8324zm32.368 3.8209l-0.6826 0.1199c0.1001,2.7786 3.8186,1.6925 2.573,-0.5568 -0.3808,-0.6877 -1.463,-1.3274 -1.7219,-1.732 -0.2956,-0.4623 -0.1972,-1.0777 0.4314,-1.1036 0.7092,-0.0292 0.6082,0.5091 0.8166,0.9582l0.5938 -0.134c-0.0039,-1.0826 -0.7764,-1.7207 -1.9039,-1.3701 -0.9352,0.2907 -1.0239,1.5788 -0.3944,2.2884 0.4278,0.4822 1.5213,1.1383 1.6528,1.7908 0.1101,0.5457 -0.1718,0.9638 -0.7415,0.8539 -0.4505,-0.087 -0.548,-0.5466 -0.6233,-1.1147zm-23.1601 -1.8312l1.3395 2.9332 0.2556 0.5513 0.5044 0.0135 -0.0621 -5.4908 -0.5774 0.0027 -0.0134 3.5369 -1.5654 -3.5359 -0.5325 0.0092 0.0313 5.5125 0.6103 -0.01 0.0097 -3.5226zm15.6054 0.7866c0.1589,-0.0672 0.3083,-0.1793 0.4147,-0.3337 0.3508,-0.5086 0.3564,-1.4612 0.0579,-1.8995 -0.45,-0.6922 -1.5619,-0.5668 -2.5355,-0.5449l0.007 5.5171 0.7778 -0.0056 -0.0041 -2.5619c0.5558,-0.0323 0.5172,-0.0755 0.6652,0.229l0.2757 0.9924c0.1271,0.457 0.2811,0.9327 0.3725,1.348l0.7613 -0.0111 -0.7925 -2.7298z"/>
    <path id="_679507328" class="fil1" d="M102.888 16.8071l1.3825 -0.0056 0.0068 -0.5908 -2.1633 0.0011 0.0126 5.5225 1.7674 0.0117c0.3366,-0.0374 0.4545,0.1753 0.3825,-0.5655l-1.3926 -0.0213 0.0066 -1.9894 1.1461 0 0 -0.579 -1.1466 0 -0.002 -1.7837z"/>
   </g>
  </g>
 </g>
</svg>
